<mxfile host="app.diagrams.net" modified="2024-07-21T07:17:00.017Z" agent="Mozilla/5.0 (Windows NT 10.0; Win64; x64) AppleWebKit/537.36 (KHTML, like Gecko) Chrome/126.0.0.0 Safari/537.36" version="24.7.2" etag="FpTHJUlPgA9G7ByL9M5P" type="github">
  <diagram name="第 1 页" id="56IdF3JTAu8VbcuJwO5u">
    <mxGraphModel>
      <root>
        <mxCell id="0" />
        <mxCell id="1" parent="0" />
      </root>
    </mxGraphModel>
  </diagram>
</mxfile>
